<svg width="81" height="100" viewBox="0 0 81 100" fill="none" xmlns="http://www.w3.org/2000/svg">
<circle cx="4.5" cy="4.5" r="4.5" fill="white" fill-opacity="0.9"/>
<circle cx="5.5" cy="66.5" r="4.5" fill="white" fill-opacity="0.9"/>
<circle cx="50.5" cy="4.5" r="4.5" fill="white" fill-opacity="0.5"/>
<circle cx="50.5" cy="67.5" r="4.5" fill="white"/>
<circle cx="30.5" cy="4.5" r="4.5" fill="white"/>
<ellipse cx="32" cy="66.5" rx="5" ry="4.5" fill="white"/>
<circle cx="76.5" cy="4.5" r="4.5" fill="white" fill-opacity="0.7"/>
<circle cx="76.5" cy="67.5" r="4.5" fill="white" fill-opacity="0.7"/>
<circle cx="18.5" cy="18.5" r="4.5" fill="white" fill-opacity="0.9"/>
<circle cx="18.5" cy="49.5" r="4.5" fill="white" fill-opacity="0.5"/>
<circle cx="19.5" cy="80.5" r="4.5" fill="white"/>
<circle cx="63.5" cy="18.5" r="4.5" fill="white" fill-opacity="0.9"/>
<circle cx="63.5" cy="49.5" r="4.5" fill="white" fill-opacity="0.9"/>
<circle cx="41.5" cy="49.5" r="4.5" fill="white" fill-opacity="0.7"/>
<circle cx="63.5" cy="81.5" r="4.5" fill="white" fill-opacity="0.7"/>
<circle cx="4.5" cy="32.5" r="4.5" fill="white"/>
<circle cx="5.5" cy="94.5" r="4.5" fill="white"/>
<circle cx="50.5" cy="32.5" r="4.5" fill="white" fill-opacity="0.9"/>
<circle cx="50.5" cy="95.5" r="4.5" fill="white" fill-opacity="0.5"/>
<circle cx="30.5" cy="32.5" r="4.5" fill="white" fill-opacity="0.5"/>
<ellipse cx="32" cy="94.5" rx="5" ry="4.5" fill="white" fill-opacity="0.5"/>
<circle cx="76.5" cy="32.5" r="4.5" fill="white" fill-opacity="0.7"/>
<circle cx="76.5" cy="95.5" r="4.5" fill="white"/>
</svg>
