<svg width="17" height="17" viewBox="0 0 17 17" fill="none" xmlns="http://www.w3.org/2000/svg">
<path d="M0 0.767045C0 0.341974 0.301102 0 0.67537 0H1.95576C2.57485 0 3.12359 0.409091 3.37966 1.02273H14.9454C15.6855 1.02273 16.2258 1.82173 16.0316 2.63352L14.8778 7.50107C14.6386 8.50462 13.8366 9.20455 12.9221 9.20455H4.80357L4.95553 10.1154C5.01744 10.4766 5.29603 10.7386 5.61964 10.7386H13.7325C14.1068 10.7386 14.4079 11.0806 14.4079 11.5057C14.4079 11.9308 14.1068 12.2727 13.7325 12.2727H5.61964C4.64598 12.2727 3.81021 11.4865 3.63011 10.4031L2.17807 1.74183C2.15837 1.62038 2.06551 1.53409 1.95576 1.53409H0.67537C0.301102 1.53409 0 1.19212 0 0.767045ZM3.60197 14.8295C3.60197 14.6281 3.63691 14.4286 3.70479 14.2425C3.77267 14.0563 3.87217 13.8872 3.9976 13.7448C4.12302 13.6023 4.27193 13.4893 4.43581 13.4122C4.59969 13.3351 4.77533 13.2955 4.95271 13.2955C5.1301 13.2955 5.30574 13.3351 5.46962 13.4122C5.6335 13.4893 5.7824 13.6023 5.90783 13.7448C6.03326 13.8872 6.13275 14.0563 6.20063 14.2425C6.26852 14.4286 6.30345 14.6281 6.30345 14.8295C6.30345 15.031 6.26852 15.2305 6.20063 15.4166C6.13275 15.6027 6.03326 15.7719 5.90783 15.9143C5.7824 16.0568 5.6335 16.1698 5.46962 16.2469C5.30574 16.324 5.1301 16.3636 4.95271 16.3636C4.77533 16.3636 4.59969 16.324 4.43581 16.2469C4.27193 16.1698 4.12302 16.0568 3.9976 15.9143C3.87217 15.7719 3.77267 15.6027 3.70479 15.4166C3.63691 15.2305 3.60197 15.031 3.60197 14.8295ZM13.0572 13.2955C13.4154 13.2955 13.759 13.4571 14.0123 13.7448C14.2656 14.0325 14.4079 14.4227 14.4079 14.8295C14.4079 15.2364 14.2656 15.6266 14.0123 15.9143C13.759 16.202 13.4154 16.3636 13.0572 16.3636C12.6989 16.3636 12.3553 16.202 12.102 15.9143C11.8487 15.6266 11.7064 15.2364 11.7064 14.8295C11.7064 14.4227 11.8487 14.0325 12.102 13.7448C12.3553 13.4571 12.6989 13.2955 13.0572 13.2955Z" fill="black"/>
</svg>
