<svg width="358" height="136" viewBox="0 0 358 136" fill="none" xmlns="http://www.w3.org/2000/svg">
<path d="M155.478 88.476L144.938 64.404H147.828L156.158 85.246L155.478 88.476ZM155.478 88.476L155.172 86.096L164.216 64.302H166.256L157.042 84.974C157.042 84.974 156.974 85.1213 156.838 85.416C156.725 85.688 156.577 86.028 156.396 86.436C156.237 86.844 156.09 87.2407 155.954 87.626C155.841 88.0113 155.784 88.2947 155.784 88.476H155.478ZM163.264 66.648C163.513 65.968 163.468 65.4467 163.128 65.084C162.788 64.7213 162.403 64.54 161.972 64.54H161.666V64.2H168.5V64.54C168.5 64.54 168.443 64.54 168.33 64.54C168.239 64.54 168.194 64.54 168.194 64.54C167.695 64.54 167.163 64.71 166.596 65.05C166.029 65.3673 165.565 65.9113 165.202 66.682L163.264 66.648ZM148.746 66.648L145.924 66.682C145.584 65.9113 145.131 65.3673 144.564 65.05C143.997 64.71 143.453 64.54 142.932 64.54C142.932 64.54 142.887 64.54 142.796 64.54C142.705 64.54 142.66 64.54 142.66 64.54V64.2H150.31V64.54H150.004C149.573 64.54 149.188 64.7213 148.848 65.084C148.531 65.4467 148.497 65.968 148.746 66.648ZM180.147 67.124C181.733 67.124 183.218 67.3847 184.601 67.906C186.006 68.4047 187.23 69.13 188.273 70.082C189.338 71.034 190.165 72.1673 190.755 73.482C191.344 74.774 191.639 76.2133 191.639 77.8C191.639 79.3867 191.344 80.8373 190.755 82.152C190.165 83.444 189.338 84.566 188.273 85.518C187.23 86.47 186.006 87.2067 184.601 87.728C183.218 88.2267 181.733 88.476 180.147 88.476C178.56 88.476 177.075 88.2267 175.693 87.728C174.31 87.2067 173.086 86.47 172.021 85.518C170.978 84.566 170.162 83.444 169.573 82.152C168.983 80.8373 168.689 79.3867 168.689 77.8C168.689 76.2133 168.983 74.774 169.573 73.482C170.162 72.1673 170.978 71.034 172.021 70.082C173.086 69.13 174.31 68.4047 175.693 67.906C177.075 67.3847 178.56 67.124 180.147 67.124ZM180.147 87.456C181.824 87.456 183.343 87.048 184.703 86.232C186.063 85.416 187.139 84.2827 187.933 82.832C188.726 81.3813 189.123 79.704 189.123 77.8C189.123 75.8733 188.726 74.196 187.933 72.768C187.139 71.3173 186.063 70.184 184.703 69.368C183.343 68.552 181.824 68.144 180.147 68.144C178.492 68.144 176.985 68.552 175.625 69.368C174.265 70.184 173.188 71.3173 172.395 72.768C171.601 74.196 171.205 75.8733 171.205 77.8C171.205 79.704 171.601 81.3813 172.395 82.832C173.188 84.2827 174.265 85.416 175.625 86.232C176.985 87.048 178.492 87.456 180.147 87.456ZM206.851 67.124C207.893 67.124 208.868 67.2033 209.775 67.362C210.704 67.498 211.577 67.7247 212.393 68.042C213.231 68.3367 214.025 68.722 214.773 69.198L215.521 73.992H215.215C214.897 72.6547 214.376 71.5553 213.651 70.694C212.948 69.8327 212.03 69.198 210.897 68.79C209.763 68.3593 208.403 68.144 206.817 68.144C205.094 68.144 203.575 68.5407 202.261 69.334C200.969 70.1047 199.96 71.2153 199.235 72.666C198.509 74.094 198.147 75.8053 198.147 77.8C198.147 79.772 198.509 81.4833 199.235 82.934C199.96 84.3847 200.98 85.5067 202.295 86.3C203.609 87.0707 205.128 87.456 206.851 87.456C207.803 87.456 208.709 87.354 209.571 87.15C210.432 86.946 211.259 86.6287 212.053 86.198C212.869 85.7447 213.628 85.178 214.331 84.498L214.365 79.976C214.387 79.5453 214.251 79.2167 213.957 78.99C213.685 78.7633 213.299 78.65 212.801 78.65H212.325V78.31H218.547V78.65H218.071C217.051 78.65 216.541 79.1033 216.541 80.01V84.09C216.019 84.7473 215.305 85.416 214.399 86.096C213.492 86.776 212.404 87.3427 211.135 87.796C209.888 88.2493 208.46 88.476 206.851 88.476C204.607 88.4533 202.646 88.0113 200.969 87.15C199.314 86.2887 198.022 85.0647 197.093 83.478C196.163 81.8913 195.699 79.9987 195.699 77.8C195.699 75.5787 196.163 73.6747 197.093 72.088C198.022 70.5013 199.325 69.2773 201.003 68.416C202.68 67.5547 204.629 67.124 206.851 67.124ZM225.591 67.6V80.452C225.591 82.6507 226.146 84.3847 227.257 85.654C228.39 86.9233 229.932 87.558 231.881 87.558C234.034 87.558 235.723 86.9573 236.947 85.756C238.194 84.5547 238.817 82.9113 238.817 80.826V67.6H240.381V80.826C240.381 83.1833 239.622 85.0533 238.103 86.436C236.607 87.796 234.544 88.476 231.915 88.476C229.308 88.476 227.234 87.796 225.693 86.436C224.174 85.076 223.415 83.2173 223.415 80.86V67.6H225.591ZM223.483 67.6V69.402H223.415C223.392 68.994 223.222 68.654 222.905 68.382C222.61 68.0873 222.236 67.94 221.783 67.94C221.783 67.94 221.692 67.94 221.511 67.94C221.352 67.94 221.273 67.94 221.273 67.94V67.6H223.483ZM227.733 67.6V67.94C227.733 67.94 227.642 67.94 227.461 67.94C227.302 67.94 227.223 67.94 227.223 67.94C226.792 67.94 226.407 68.0873 226.067 68.382C225.75 68.654 225.591 68.994 225.591 69.402H225.523V67.6H227.733ZM238.885 67.6V69.402H238.817C238.817 68.994 238.658 68.654 238.341 68.382C238.024 68.0873 237.638 67.94 237.185 67.94C237.185 67.94 237.094 67.94 236.913 67.94C236.754 67.94 236.675 67.94 236.675 67.94V67.6H238.885ZM242.523 67.6V67.94C242.523 67.94 242.432 67.94 242.251 67.94C242.092 67.94 242.013 67.94 242.013 67.94C241.582 67.94 241.208 68.0873 240.891 68.382C240.574 68.654 240.404 68.994 240.381 69.402H240.313V67.6H242.523ZM250.894 67.6V88H248.718V67.6H250.894ZM260.04 86.946L259.972 88H250.826V86.946H260.04ZM258.442 77.29V78.31H250.826V77.29H258.442ZM260.006 67.6V68.654H250.826V67.6H260.006ZM261.944 83.138L260.074 88H254.906L256.062 86.946C257.195 86.946 258.102 86.7873 258.782 86.47C259.484 86.13 260.051 85.6767 260.482 85.11C260.912 84.5207 261.286 83.8633 261.604 83.138H261.944ZM258.442 78.242V80.18H258.068V79.738C258.068 79.3527 257.954 79.024 257.728 78.752C257.501 78.4573 257.15 78.31 256.674 78.31V78.242H258.442ZM258.442 75.42V77.358H256.674V77.29C257.15 77.29 257.501 77.154 257.728 76.882C257.954 76.5873 258.068 76.2473 258.068 75.862V75.42H258.442ZM260.006 68.552V70.898H259.632V70.388C259.632 69.912 259.473 69.504 259.156 69.164C258.861 68.824 258.453 68.654 257.932 68.654V68.552H260.006ZM260.006 67.056V67.94L256.13 67.6C256.832 67.6 257.58 67.5433 258.374 67.43C259.167 67.294 259.711 67.1693 260.006 67.056ZM248.786 85.824L249.228 88H246.27V87.66C246.27 87.66 246.349 87.66 246.508 87.66C246.666 87.66 246.746 87.66 246.746 87.66C247.312 87.66 247.777 87.4787 248.14 87.116C248.502 86.7533 248.695 86.3227 248.718 85.824H248.786ZM248.786 69.742H248.718C248.695 69.2207 248.502 68.79 248.14 68.45C247.777 68.11 247.312 67.94 246.746 67.94C246.746 67.94 246.666 67.94 246.508 67.94C246.349 67.94 246.27 67.94 246.27 67.94V67.6H249.228L248.786 69.742ZM265.782 64.404H268.536L274.86 84.702L274.282 88.408L265.782 64.404ZM281.014 63.656L281.286 66.41L275.302 84.634C275.302 84.634 275.246 84.838 275.132 85.246C275.019 85.6313 274.906 86.1187 274.792 86.708C274.679 87.2747 274.611 87.8413 274.588 88.408H274.282L273.67 85.382L280.708 63.656H281.014ZM281.014 63.69L288.154 83.716L287.406 88.408L279.858 67.362L281.014 63.69ZM294.818 64.404L288.46 84.634C288.46 84.634 288.404 84.838 288.29 85.246C288.177 85.654 288.052 86.1527 287.916 86.742C287.803 87.3087 287.735 87.864 287.712 88.408H287.406L286.998 85.042L292.914 64.404H294.818ZM292.268 66.648C292.45 65.968 292.393 65.4467 292.098 65.084C291.804 64.7213 291.43 64.54 290.976 64.54H290.67V64.2H297.368V64.54C297.368 64.54 297.323 64.54 297.232 64.54C297.142 64.54 297.096 64.54 297.096 64.54C296.575 64.54 296.008 64.71 295.396 65.05C294.784 65.3673 294.354 65.9 294.104 66.648H292.268ZM269.25 66.648H266.564C266.292 65.9 265.85 65.3673 265.238 65.05C264.649 64.71 264.094 64.54 263.572 64.54C263.572 64.54 263.527 64.54 263.436 64.54C263.346 64.54 263.3 64.54 263.3 64.54V64.2H270.848V64.54H270.542C270.112 64.54 269.726 64.7213 269.386 65.084C269.069 65.4467 269.024 65.968 269.25 66.648ZM305.76 67.124L315.11 87.796H312.424L305.182 70.15L305.76 67.124ZM299.198 85.518C298.949 86.198 298.983 86.7307 299.3 87.116C299.617 87.4787 299.98 87.66 300.388 87.66H300.66V88H294.166V87.66C294.166 87.66 294.211 87.66 294.302 87.66C294.393 87.66 294.438 87.66 294.438 87.66C294.914 87.66 295.401 87.5013 295.9 87.184C296.399 86.844 296.829 86.2887 297.192 85.518H299.198ZM305.76 67.124L305.998 69.47L298.212 87.898H296.07L304.128 70.626C304.128 70.626 304.185 70.49 304.298 70.218C304.434 69.946 304.581 69.6173 304.74 69.232C304.921 68.824 305.08 68.4273 305.216 68.042C305.352 67.6567 305.431 67.3507 305.454 67.124H305.76ZM309.772 80.078V81.098H300.762V80.078H309.772ZM311.506 85.518H314.09C314.43 86.2887 314.849 86.844 315.348 87.184C315.847 87.5013 316.323 87.66 316.776 87.66C316.776 87.66 316.821 87.66 316.912 87.66C317.003 87.66 317.048 87.66 317.048 87.66V88H310.078V87.66H310.35C310.735 87.66 311.087 87.4787 311.404 87.116C311.721 86.7307 311.755 86.198 311.506 85.518ZM324.055 67.6V88H321.879V67.6H324.055ZM333.201 86.946L333.133 88H323.987V86.946H333.201ZM335.105 83.138L333.235 88H328.067L329.223 86.946C330.356 86.946 331.263 86.7873 331.943 86.47C332.645 86.13 333.212 85.6767 333.643 85.11C334.073 84.5207 334.447 83.8633 334.765 83.138H335.105ZM321.947 85.824L322.389 88H319.431V87.66C319.431 87.66 319.51 87.66 319.669 87.66C319.827 87.66 319.907 87.66 319.907 87.66C320.473 87.66 320.938 87.4787 321.301 87.116C321.663 86.7533 321.856 86.3227 321.879 85.824H321.947ZM323.953 69.776V67.6H326.469V67.94C326.469 67.94 326.401 67.94 326.265 67.94C326.129 67.94 326.061 67.94 326.061 67.94C325.517 67.94 325.041 68.1213 324.633 68.484C324.247 68.824 324.055 69.2547 324.055 69.776H323.953ZM321.947 69.776H321.879C321.856 69.2547 321.652 68.824 321.267 68.484C320.881 68.1213 320.405 67.94 319.839 67.94C319.839 67.94 319.771 67.94 319.635 67.94C319.499 67.94 319.431 67.94 319.431 67.94V67.6H321.947V69.776ZM345.193 76.61L354.067 86.266C354.453 86.7193 354.861 87.0593 355.291 87.286C355.722 87.5127 356.3 87.6373 357.025 87.66V88H355.767C355.495 88 355.155 87.9887 354.747 87.966C354.362 87.9207 353.931 87.8413 353.455 87.728C353.002 87.592 352.537 87.3993 352.061 87.15C351.608 86.878 351.177 86.5153 350.769 86.062C350.769 86.062 350.588 85.8693 350.225 85.484C349.885 85.076 349.432 84.566 348.865 83.954C348.299 83.3193 347.687 82.662 347.029 81.982C346.395 81.2793 345.794 80.622 345.227 80.01C344.661 79.3753 344.196 78.8653 343.833 78.48C343.471 78.072 343.289 77.868 343.289 77.868L345.193 76.61ZM354.271 67.838L344.887 77.868H343.289L351.823 67.838H354.271ZM356.481 67.6V67.94H356.345C355.643 67.94 354.985 68.0533 354.373 68.28C353.784 68.5067 353.297 68.8467 352.911 69.3L350.599 69.266C350.849 68.9487 350.883 68.654 350.701 68.382C350.543 68.0873 350.259 67.94 349.851 67.94H349.545V67.6H356.345H356.481ZM342.099 67.6V88H339.923V67.6H342.099ZM339.991 85.824V88H337.509V87.66C337.509 87.66 337.577 87.66 337.713 87.66C337.849 87.66 337.917 87.66 337.917 87.66C338.461 87.66 338.926 87.4787 339.311 87.116C339.697 86.7533 339.901 86.3227 339.923 85.824H339.991ZM341.997 85.824H342.099C342.099 86.3227 342.292 86.7533 342.677 87.116C343.063 87.4787 343.539 87.66 344.105 87.66C344.105 87.66 344.162 87.66 344.275 87.66C344.411 87.66 344.479 87.66 344.479 87.66V88H341.997V85.824ZM341.997 69.776V67.6H344.479V67.94C344.479 67.94 344.411 67.94 344.275 67.94C344.162 67.94 344.094 67.94 344.071 67.94C343.527 67.94 343.063 68.1213 342.677 68.484C342.292 68.824 342.099 69.2547 342.099 69.776H341.997ZM339.991 69.776H339.923C339.901 69.2547 339.697 68.824 339.311 68.484C338.926 68.1213 338.461 67.94 337.917 67.94C337.917 67.94 337.849 67.94 337.713 67.94C337.577 67.94 337.509 67.94 337.509 67.94V67.6H339.991V69.776Z" fill="white"/>
<ellipse cx="44.0468" cy="77.6965" rx="3.08587" ry="2.82207" fill="black"/>
<path d="M136.746 23.3247C126.994 24.8298 118.889 30.9255 113.54 40.8215C111.647 44.3209 110.207 48.3847 104.035 67.2361C100.003 79.5027 96.6293 89.5492 96.5059 89.5492C96.3825 89.5492 92.2268 79.0888 87.2894 66.2954C82.3109 53.5396 78.1141 42.9287 77.9495 42.7405C77.7438 42.5524 77.4558 42.4771 77.3324 42.6276C77.2089 42.7405 73.2179 53.7278 68.5274 66.9727C63.7957 80.2552 59.8869 91.1672 59.8047 91.2801C59.7224 91.3554 56.8834 83.3407 53.5095 73.4446C44.4988 47.0301 44.9925 48.6104 45.5274 47.143C46.0623 45.6755 47.2966 44.7724 48.8601 44.7724C49.5184 44.7724 50.0122 44.5843 50.0122 44.3961C50.0122 44.1704 46.2268 44.0199 39.4791 44.0199C33.6776 44.0199 29.0694 44.1704 29.1929 44.3585C29.3163 44.509 30.1803 44.7724 31.0855 44.8853C33.5542 45.1863 36.2698 46.8043 37.3807 48.648C37.9567 49.5135 42.6061 61.178 47.7492 74.5735L57.1302 98.9185L56.0193 101.289C54.4147 104.826 51.2877 109.078 48.2429 111.9C44.6633 115.249 41.2072 116.754 36.7635 116.942C33.3485 117.093 32.5667 117.582 35.0354 117.996C37.5041 118.41 42.6472 117.92 45.1982 117.017C50.3413 115.211 56.0193 110.094 59.0229 104.487C60.0104 102.606 63.7546 92.5594 68.6097 78.6749C72.971 66.1825 76.5918 56.1359 76.6329 56.2864C76.7152 56.4746 80.9943 67.4618 86.1785 80.7067C91.3628 93.914 95.8064 104.826 96.0533 104.901C96.3002 104.977 96.5059 104.6 96.5059 104.036C96.5059 101.364 98.5631 95.231 107.45 71.7138C117.49 45.0358 118.724 42.0632 121.645 37.3974C126.13 30.2105 132.878 25.2437 139.502 24.2654C142.465 23.8515 143 23.701 143 23.3247C143 22.8732 139.543 22.9108 136.746 23.3247Z" fill="black"/>
<ellipse cx="75.5224" cy="37.6232" rx="3.08587" ry="2.82207" fill="#AD9551"/>
<path d="M107.821 35.004C104.653 35.3426 100.909 36.3586 97.9463 37.6379C95.5599 38.6915 94.1198 39.7074 91.5689 42.078C86.1377 47.1201 86.4257 46.5933 69.9678 82.6029C65.3596 92.7247 61.4919 100.965 61.3685 100.965C60.9982 100.965 42.771 58.7094 42.8122 57.9568C42.8122 56.9032 45.034 55.0595 46.2683 55.0595C46.8444 55.0595 47.3381 54.8714 47.3381 54.6832C47.3381 54.4575 43.8408 54.3069 37.6691 54.3069C31.4973 54.3069 28 54.4575 28 54.6832C28 54.8714 28.4114 55.0595 28.9463 55.0595C30.4687 55.0971 33.0608 56.3765 34.4186 57.7687C35.1181 58.4836 36.9696 61.7572 38.5331 65.0308C55.5671 100.626 60.381 110.523 60.7102 110.635C60.9571 110.711 61.4508 109.732 61.8622 108.491C62.6029 106.082 88.2361 54.4951 91.034 49.7916C93.0912 46.2546 96.3005 42.2661 98.3989 40.6105C101.649 38.0895 107.574 35.8694 111.072 35.8694C111.936 35.8694 112.347 35.6813 112.347 35.305C112.347 34.7406 111.195 34.6653 107.821 35.004Z" fill="#AD9551"/>
</svg>
