<svg width="31" height="29" viewBox="0 0 31 29" fill="black" xmlns="http://www.w3.org/2000/svg">
<path d="M25.3167 25.375L17.1792 17.7625C16.5333 18.2458 15.7906 18.6285 14.951 18.9104C14.1115 19.1924 13.2181 19.3333 12.2708 19.3333C9.92431 19.3333 7.93837 18.5731 6.31302 17.0526C4.68767 15.5321 3.875 13.6743 3.875 11.4792C3.875 9.28403 4.68767 7.42622 6.31302 5.90573C7.93837 4.38524 9.92431 3.625 12.2708 3.625C14.6174 3.625 16.6033 4.38524 18.2286 5.90573C19.854 7.42622 20.6667 9.28403 20.6667 11.4792C20.6667 12.3653 20.516 13.201 20.2146 13.9865C19.9132 14.7719 19.5042 15.4667 18.9875 16.0708L27.125 23.6833L25.3167 25.375ZM12.2708 16.9167C13.8854 16.9167 15.2578 16.388 16.388 15.3307C17.5182 14.2734 18.0833 12.9896 18.0833 11.4792C18.0833 9.96875 17.5182 8.6849 16.388 7.6276C15.2578 6.57031 13.8854 6.04167 12.2708 6.04167C10.6562 6.04167 9.28385 6.57031 8.15365 7.6276C7.02344 8.6849 6.45833 9.96875 6.45833 11.4792C6.45833 12.9896 7.02344 14.2734 8.15365 15.3307C9.28385 16.388 10.6562 16.9167 12.2708 16.9167Z" fill="white"/>
</svg>
