<svg width="19" height="20" viewBox="0 0 19 20" fill="none" xmlns="http://www.w3.org/2000/svg">
<g clip-path="url(#clip0_87_154)">
<path d="M6.78962 4.375C6.78962 2.99609 8.00681 1.875 9.50391 1.875C11.001 1.875 12.2182 2.99609 12.2182 4.375V6.25H6.78962V4.375ZM4.75391 6.25H2.03962C0.915737 6.25 0.00390625 7.08984 0.00390625 8.125V16.25C0.00390625 18.3203 1.82757 20 4.07533 20H14.9325C17.1802 20 19.0039 18.3203 19.0039 16.25V8.125C19.0039 7.08984 18.0921 6.25 16.9682 6.25H14.2539V4.375C14.2539 1.95703 12.1291 0 9.50391 0C6.87868 0 4.75391 1.95703 4.75391 4.375V6.25ZM5.77176 8.125C6.04172 8.125 6.30061 8.22377 6.4915 8.39959C6.68238 8.5754 6.78962 8.81386 6.78962 9.0625C6.78962 9.31114 6.68238 9.5496 6.4915 9.72541C6.30061 9.90123 6.04172 10 5.77176 10C5.50181 10 5.24291 9.90123 5.05203 9.72541C4.86114 9.5496 4.75391 9.31114 4.75391 9.0625C4.75391 8.81386 4.86114 8.5754 5.05203 8.39959C5.24291 8.22377 5.50181 8.125 5.77176 8.125ZM12.2182 9.0625C12.2182 8.81386 12.3254 8.5754 12.5163 8.39959C12.7072 8.22377 12.9661 8.125 13.236 8.125C13.506 8.125 13.7649 8.22377 13.9558 8.39959C14.1467 8.5754 14.2539 8.81386 14.2539 9.0625C14.2539 9.31114 14.1467 9.5496 13.9558 9.72541C13.7649 9.90123 13.506 10 13.236 10C12.9661 10 12.7072 9.90123 12.5163 9.72541C12.3254 9.5496 12.2182 9.31114 12.2182 9.0625Z" fill="black"/>
</g>
<defs>
<clipPath id="clip0_87_154">
<rect width="19" height="20" fill="white" transform="translate(0.00390625)"/>
</clipPath>
</defs>
</svg>
