<svg width="573" height="511" viewBox="0 0 573 511" fill="none" xmlns="http://www.w3.org/2000/svg">
<path d="M275.25 67.4C283.183 62.0333 292.633 57.8333 303.6 54.8C314.567 51.7666 323.433 50.25 330.2 50.25C336.967 50.25 341.283 50.25 343.15 50.25V53.75C332.183 54.2167 321.917 56.4333 312.35 60.4C302.783 64.1333 294.85 68.5667 288.55 73.7C282.483 78.6 276.533 85.25 270.7 93.65C264.867 101.817 260.317 108.817 257.05 114.65C254.017 120.483 250.4 127.95 246.2 137.05L148.9 349.85C140.267 368.75 135.95 380.767 135.95 385.9H132.8L34.45 161.55C31.1833 154.083 26.6333 148.6 20.8 145.1C15.2 141.367 9.48333 139.5 3.65 139.5H0.85V136H79.6V139.5H76.45C69.45 139.5 64.7833 142.767 62.45 149.3C61.9833 150.7 61.75 152.333 61.75 154.2C61.75 156.067 62.3333 158.4 63.5 161.2L136.65 344.6L223.45 137.05C237.217 104.617 254.483 81.4 275.25 67.4Z" fill="#D9D9D9"/>
<path d="M568.2 11.6C569.833 11.6 571.35 11.6 572.75 11.6V15.1C561.783 15.5667 551.4 18.1333 541.6 22.8C531.8 27.4667 523.517 33.0667 516.75 39.6C509.983 45.9 503.683 53.6 497.85 62.7C488.517 77.1666 480.583 93.7333 474.05 112.4L406.85 307.35C402.183 322.05 399.617 335 399.15 346.2H396L324.6 146.35L268.25 322.75C259.85 349.117 246.317 369.65 227.65 384.35C214.117 395.317 198.95 400.8 182.15 400.8C176.317 400.8 170.133 400.1 163.6 398.7L164.3 395.2C167.8 395.9 171.767 396.25 176.2 396.25C180.867 396.25 186.933 394.85 194.4 392.05C202.1 389.25 209.683 384.233 217.15 377C232.317 362.3 243.983 343.867 252.15 321.7L181.45 121.85C178.65 114.85 174.333 109.6 168.5 106.1C162.667 102.367 156.717 100.5 150.65 100.5H147.85V97H225.55V100.5H222.4C217.5 100.5 213.767 102.133 211.2 105.4C208.867 108.433 207.7 111.35 207.7 114.15C207.7 116.95 208.05 119.517 208.75 121.85L261.95 292.3L327.05 91.4L330.2 91.75L399.5 285.65L451.3 112.4C457.367 92.1 466.7 73.7833 479.3 57.45C502.633 26.8833 532.267 11.6 568.2 11.6Z" fill="#D9D9D9"/>
</svg>
