<svg width="526" height="262" viewBox="0 0 526 262" fill="none" xmlns="http://www.w3.org/2000/svg">
<g clip-path="url(#clip0_255_780)">
<path d="M263 234.181C408.251 234.181 526 231.006 526 227.089C526 223.173 408.251 219.997 263 219.997C117.749 219.997 0 223.173 0 227.089C0 231.006 117.749 234.181 263 234.181Z" fill="#E6E6E6"/>
<path d="M403.161 150.244C402.829 150.248 402.497 150.253 402.16 150.253C401.823 150.253 401.491 150.248 401.159 150.244C383.554 149.858 370.794 139.254 374.042 128.128L381.962 100.987L383.963 94.119L419.447 94.7023L421.603 101.421L430.092 127.865C433.686 139.052 420.925 149.858 403.161 150.244Z" fill="#3F3D56"/>
<path opacity="0.2" d="M421.602 101.421C415.552 104.755 408.689 106.472 401.72 106.396C394.752 106.319 387.931 104.452 381.961 100.987L383.963 94.119L419.446 94.7023L421.602 101.421Z" fill="black"/>
<path d="M420.105 129.029C421.638 123.522 426.676 115.577 440.804 105.999C465.444 89.2912 450.745 76.7638 450.108 76.2389C448.772 75.1379 448.969 73.9017 450.567 73.4793C451.495 73.3004 452.452 73.3149 453.374 73.5218C454.296 73.7286 455.161 74.123 455.912 74.6786C456.71 75.3147 475.116 90.4671 447.311 109.317C422.289 126.285 427.609 137.36 427.67 137.467C428.34 138.651 427.265 139.599 425.266 139.586C423.267 139.573 421.102 138.604 420.429 137.42C420.287 137.17 418.677 134.156 420.105 129.029Z" fill="#3F3D56"/>
<path d="M385.783 154.2C385.245 154.2 384.713 154.098 384.216 153.899C383.719 153.701 383.268 153.41 382.888 153.044C382.507 152.677 382.206 152.242 382 151.763C381.794 151.284 381.688 150.771 381.688 150.253V133.149C381.688 132.103 382.12 131.099 382.888 130.359C383.655 129.618 384.697 129.203 385.783 129.203C386.869 129.203 387.91 129.618 388.678 130.359C389.446 131.099 389.877 132.103 389.877 133.149V150.253C389.877 150.771 389.771 151.284 389.565 151.763C389.36 152.242 389.058 152.677 388.678 153.044C388.298 153.41 387.846 153.701 387.35 153.899C386.853 154.098 386.32 154.2 385.783 154.2Z" fill="#3F3D56"/>
<path d="M389.373 113.596C389.148 114.067 388.829 114.49 388.435 114.842C388.04 115.194 387.578 115.468 387.073 115.648C386.569 115.828 386.033 115.91 385.496 115.89C384.958 115.87 384.43 115.748 383.942 115.532L367.824 108.383C366.839 107.945 366.075 107.147 365.699 106.166C365.323 105.185 365.367 104.1 365.82 103.149C366.274 102.199 367.1 101.461 368.118 101.098C369.135 100.735 370.261 100.776 371.247 101.212L387.365 108.36C387.853 108.577 388.292 108.884 388.658 109.265C389.023 109.645 389.307 110.091 389.493 110.577C389.68 111.063 389.765 111.58 389.745 112.098C389.724 112.616 389.597 113.125 389.373 113.596Z" fill="#3F3D56"/>
<path d="M414.947 113.596C415.172 114.067 415.491 114.49 415.885 114.842C416.28 115.194 416.742 115.468 417.247 115.648C417.751 115.828 418.287 115.91 418.824 115.89C419.361 115.87 419.889 115.748 420.378 115.532L436.495 108.383C437.482 107.945 438.248 107.148 438.624 106.166C439.001 105.185 438.958 104.099 438.504 103.148C438.05 102.197 437.223 101.459 436.204 101.096C435.186 100.732 434.059 100.774 433.073 101.212L416.955 108.36C416.467 108.577 416.027 108.884 415.662 109.265C415.297 109.645 415.013 110.091 414.826 110.577C414.64 111.063 414.555 111.58 414.575 112.098C414.596 112.616 414.722 113.125 414.947 113.596Z" fill="#3F3D56"/>
<path d="M418.537 154.2C419.074 154.2 419.607 154.098 420.103 153.899C420.6 153.701 421.052 153.41 421.432 153.044C421.812 152.677 422.113 152.242 422.319 151.763C422.525 151.284 422.631 150.771 422.631 150.253V133.149C422.631 132.103 422.2 131.099 421.432 130.359C420.664 129.618 419.622 129.203 418.537 129.203C417.451 129.203 416.409 129.618 415.642 130.359C414.874 131.099 414.442 132.103 414.442 133.149V150.253C414.442 150.771 414.548 151.284 414.754 151.763C414.96 152.242 415.261 152.677 415.642 153.044C416.022 153.41 416.473 153.701 416.97 153.899C417.467 154.098 417.999 154.2 418.537 154.2Z" fill="#3F3D56"/>
<path d="M435.647 43.4736C436.001 43.044 436.256 42.547 436.396 42.0153C436.537 41.4836 436.558 40.9293 436.46 40.389L434.231 27.7521L432.003 15.1152C431.883 14.4329 431.578 13.7931 431.12 13.2602C430.662 12.7273 430.067 12.32 429.394 12.0793C428.72 11.8386 427.993 11.773 427.286 11.889C426.578 12.0049 425.914 12.2985 425.361 12.7401L415.123 20.9188L408.955 25.8462C404.841 25.1411 400.637 25.08 396.503 25.6652L390.561 20.9188L380.323 12.7401C379.77 12.2985 379.107 12.0049 378.399 11.889C377.691 11.773 376.964 11.8386 376.291 12.0793C375.618 12.3201 375.022 12.7273 374.564 13.2602C374.106 13.7931 373.802 14.4329 373.681 15.1152L371.453 27.7521L369.225 40.389C369.106 41.0532 369.167 41.7357 369.403 42.3702C365.584 48.0137 363.404 54.5405 363.089 61.2717C362.773 68.0029 364.335 74.6926 367.61 80.6449C370.886 86.5972 375.756 91.5947 381.715 95.1174C387.673 98.6402 394.501 100.56 401.49 100.676C408.478 100.792 415.372 99.1016 421.453 95.7794C427.534 92.4571 432.58 87.6248 436.067 81.7851C439.554 75.9455 441.354 69.3118 441.28 62.5741C441.207 55.8364 439.261 49.2409 435.647 43.4736Z" fill="#3F3D56"/>
<path d="M379.297 17.9185C379.054 17.9189 378.813 17.961 378.586 18.0429C378.251 18.1603 377.955 18.3614 377.728 18.6255C377.501 18.8897 377.351 19.2074 377.293 19.5459L374.591 34.8706C374.532 35.2084 374.565 35.5554 374.689 35.8766C374.813 36.1979 375.022 36.4821 375.295 36.7007C375.569 36.9193 375.898 37.0647 376.248 37.1221C376.599 37.1795 376.959 37.1469 377.292 37.0278L392.41 31.6213C392.743 31.5021 393.038 31.3005 393.264 31.0367C393.491 30.7729 393.642 30.4563 393.702 30.1185C393.761 29.7807 393.727 29.4338 393.604 29.1126C393.48 28.7914 393.271 28.5072 392.997 28.2886L380.582 18.3701C380.221 18.0792 379.767 17.9194 379.297 17.9185Z" fill="#E6E6E6"/>
<path d="M426.388 17.9185C425.918 17.9194 425.463 18.0792 425.103 18.3701L412.687 28.2886C412.413 28.5072 412.204 28.7914 412.08 29.1126C411.957 29.4338 411.923 29.7807 411.983 30.1185C412.042 30.4563 412.193 30.7729 412.42 31.0367C412.647 31.3005 412.941 31.5021 413.275 31.6213L428.393 37.0278C428.726 37.1469 429.086 37.1795 429.436 37.1221C429.787 37.0647 430.115 36.9193 430.389 36.7007C430.662 36.4821 430.872 36.1979 430.995 35.8766C431.119 35.5554 431.153 35.2084 431.093 34.8706L428.391 19.5459C428.333 19.2074 428.183 18.8897 427.956 18.6255C427.729 18.3614 427.433 18.1603 427.099 18.0429C426.871 17.961 426.63 17.9189 426.388 17.9185Z" fill="#E6E6E6"/>
<path d="M402.159 73.5075C405.174 73.5075 407.618 71.1514 407.618 68.245C407.618 65.3385 405.174 62.9824 402.159 62.9824C399.144 62.9824 396.7 65.3385 396.7 68.245C396.7 71.1514 399.144 73.5075 402.159 73.5075Z" fill="#E6E6E6"/>
<path d="M402.16 66.9293C404.17 66.9293 405.799 66.3403 405.799 65.6137C405.799 64.8871 404.17 64.298 402.16 64.298C400.15 64.298 398.521 64.8871 398.521 65.6137C398.521 66.3403 400.15 66.9293 402.16 66.9293Z" fill="#3F3D56"/>
<path d="M399.43 71.3147H404.434V77.2351C404.434 77.5518 404.369 77.8654 404.243 78.1581C404.118 78.4507 403.933 78.7166 403.701 78.9406C403.469 79.1646 403.193 79.3422 402.889 79.4634C402.586 79.5847 402.26 79.647 401.932 79.647C401.268 79.647 400.632 79.3929 400.163 78.9406C399.693 78.4883 399.43 77.8748 399.43 77.2351L399.43 71.3147Z" fill="#FF6584"/>
<path d="M402.464 11.6232C402.201 12.1477 401.947 12.678 401.707 13.2191C398.884 19.5664 397.932 26.5415 398.955 33.3769C399.468 32.6605 400.006 31.9141 400.553 31.1596C399.381 24.5994 400.04 17.8566 402.464 11.6232Z" fill="#3F3D56"/>
<path d="M406.557 16.4471C406.295 16.9717 406.04 17.502 405.801 18.0431C402.977 24.3904 402.025 31.3655 403.049 38.2009C403.561 37.4845 404.1 36.7381 404.647 35.9836C403.475 29.4234 404.134 22.6805 406.557 16.4471Z" fill="#3F3D56"/>
<path d="M419.18 111.152L418.603 104.081L418.027 97.0097C417.995 96.6279 417.861 96.2607 417.636 95.9451C417.411 95.6295 417.103 95.3765 416.745 95.2116C416.386 95.0467 415.989 94.9757 415.593 95.0057C415.197 95.0357 414.816 95.1657 414.489 95.3826L408.425 99.3997L403.997 102.333C403.714 102.014 403.362 101.757 402.966 101.581C402.571 101.405 402.14 101.314 401.704 101.314C401.269 101.314 400.838 101.405 400.442 101.581C400.047 101.757 399.695 102.014 399.412 102.333L394.984 99.3997L388.92 95.3826C388.593 95.1657 388.212 95.0357 387.816 95.0057C387.42 94.9757 387.022 95.0467 386.664 95.2115C386.305 95.3764 385.998 95.6294 385.773 95.9451C385.548 96.2607 385.413 96.6279 385.382 97.0096L384.805 104.081L384.229 111.152C384.198 111.534 384.271 111.916 384.442 112.262C384.613 112.608 384.876 112.904 385.203 113.121C385.531 113.338 385.911 113.468 386.307 113.498C386.703 113.528 387.101 113.457 387.459 113.292L394.1 110.238L399.556 107.729C399.837 108.003 400.172 108.221 400.54 108.369C400.909 108.518 401.305 108.594 401.704 108.594C402.104 108.594 402.5 108.518 402.869 108.369C403.237 108.221 403.572 108.003 403.852 107.729L409.309 110.238L415.95 113.292C416.308 113.457 416.705 113.528 417.101 113.498C417.497 113.468 417.878 113.338 418.206 113.121C418.533 112.904 418.796 112.608 418.967 112.262C419.138 111.917 419.211 111.534 419.18 111.152Z" fill="#167C80"/>
<path d="M394.881 63.8595C395.635 63.8595 396.246 63.2704 396.246 62.5438C396.246 61.8172 395.635 61.2282 394.881 61.2282C394.128 61.2282 393.517 61.8172 393.517 62.5438C393.517 63.2704 394.128 63.8595 394.881 63.8595Z" fill="#E6E6E6"/>
<path d="M409.438 63.8595C410.192 63.8595 410.803 63.2704 410.803 62.5438C410.803 61.8172 410.192 61.2282 409.438 61.2282C408.684 61.2282 408.073 61.8172 408.073 62.5438C408.073 63.2704 408.684 63.8595 409.438 63.8595Z" fill="#E6E6E6"/>
<path d="M138.101 138.621C138.433 138.625 138.765 138.63 139.102 138.63C139.438 138.63 139.77 138.625 140.102 138.621C157.708 138.235 170.468 127.631 167.22 116.505L159.3 89.3635L157.298 82.4959L121.815 83.0792L119.659 89.7977L111.17 116.242C107.576 127.429 120.336 138.235 138.101 138.621Z" fill="#3F3D56"/>
<path opacity="0.2" d="M119.658 89.7977C125.708 93.1316 132.572 94.849 139.54 94.7727C146.508 94.6964 153.33 92.8291 159.3 89.3635L157.298 82.4959L121.814 83.0792L119.658 89.7977Z" fill="black"/>
<path d="M116.846 114.189C113.016 109.843 104.936 104.741 87.9149 101.912C58.2286 96.9751 65.9532 79.5893 66.2959 78.8521C67.0148 77.3059 66.2878 76.27 64.6563 76.5472C63.7381 76.7684 62.8795 77.1763 62.1381 77.7435C61.3968 78.3107 60.7897 79.0241 60.3578 79.8359C59.9191 80.74 50.0091 102.028 83.5064 107.596C113.654 112.609 113.762 124.814 113.754 124.935C113.673 126.283 115.066 126.696 116.867 125.86C118.668 125.024 120.195 123.254 120.278 121.907C120.294 121.622 120.412 118.233 116.846 114.189Z" fill="#3F3D56"/>
<path d="M155.478 142.576C156.016 142.576 156.548 142.474 157.045 142.276C157.542 142.078 157.993 141.787 158.373 141.42C158.753 141.054 159.055 140.619 159.261 140.14C159.466 139.661 159.572 139.148 159.572 138.63V121.526C159.571 120.48 159.139 119.478 158.371 118.739C157.604 117.999 156.563 117.584 155.478 117.584C154.393 117.584 153.352 117.999 152.585 118.739C151.817 119.478 151.385 120.48 151.384 121.526V138.63C151.384 139.148 151.49 139.661 151.695 140.14C151.901 140.619 152.203 141.054 152.583 141.42C152.963 141.787 153.414 142.078 153.911 142.276C154.408 142.474 154.94 142.576 155.478 142.576Z" fill="#3F3D56"/>
<path d="M151.888 101.973C152.113 102.443 152.432 102.867 152.826 103.219C153.221 103.571 153.684 103.845 154.188 104.025C154.692 104.205 155.228 104.287 155.766 104.267C156.303 104.247 156.831 104.125 157.319 103.908L173.437 96.7598C173.926 96.5436 174.366 96.2365 174.732 95.8561C175.098 95.4758 175.382 95.0297 175.569 94.5434C175.756 94.057 175.841 93.5399 175.821 93.0216C175.8 92.5033 175.674 91.994 175.449 91.5228C175.224 91.0516 174.905 90.6278 174.51 90.2755C174.115 89.9232 173.652 89.6495 173.148 89.4699C172.643 89.2902 172.106 89.2083 171.569 89.2286C171.031 89.249 170.503 89.3714 170.014 89.5886L153.897 96.7373C153.408 96.9539 152.969 97.2612 152.604 97.6415C152.238 98.0219 151.954 98.4679 151.768 98.954C151.581 99.4401 151.496 99.9569 151.517 100.475C151.537 100.993 151.664 101.502 151.888 101.973Z" fill="#3F3D56"/>
<path d="M126.314 101.973C126.089 102.443 125.771 102.867 125.376 103.219C124.982 103.571 124.519 103.845 124.015 104.025C123.51 104.205 122.974 104.287 122.437 104.267C121.9 104.247 121.372 104.125 120.883 103.908L104.766 96.7598C104.277 96.5436 103.837 96.2365 103.471 95.8561C103.105 95.4758 102.821 95.0297 102.634 94.5434C102.447 94.057 102.361 93.5399 102.382 93.0216C102.402 92.5033 102.529 91.994 102.754 91.5228C102.979 91.0516 103.298 90.6278 103.692 90.2755C104.087 89.9232 104.55 89.6495 105.055 89.4699C105.56 89.2902 106.096 89.2083 106.634 89.2286C107.172 89.249 107.7 89.3714 108.188 89.5886L124.306 96.7373C124.794 96.9539 125.234 97.2612 125.599 97.6415C125.964 98.0219 126.248 98.4679 126.435 98.954C126.621 99.4401 126.707 99.9569 126.686 100.475C126.665 100.993 126.539 101.502 126.314 101.973Z" fill="#3F3D56"/>
<path d="M122.724 142.576C122.186 142.576 121.654 142.474 121.157 142.276C120.661 142.078 120.209 141.787 119.829 141.42C119.449 141.054 119.147 140.619 118.942 140.14C118.736 139.661 118.63 139.148 118.63 138.63V121.526C118.631 120.48 119.063 119.478 119.831 118.739C120.598 117.999 121.639 117.584 122.724 117.584C123.809 117.584 124.85 117.999 125.617 118.739C126.385 119.478 126.817 120.48 126.818 121.526V138.63C126.818 139.148 126.712 139.661 126.507 140.14C126.301 140.619 125.999 141.054 125.619 141.42C125.239 141.787 124.788 142.078 124.291 142.276C123.794 142.474 123.262 142.576 122.724 142.576Z" fill="#3F3D56"/>
<path d="M171.858 30.747C172.094 30.1126 172.156 29.43 172.037 28.7658L169.808 16.1289L167.58 3.49203C167.46 2.80973 167.155 2.16997 166.697 1.63707C166.239 1.10417 165.644 0.696903 164.97 0.456195C164.297 0.215486 163.57 0.149816 162.863 0.265799C162.155 0.381781 161.491 0.675327 160.938 1.11692L150.7 9.29568L144.758 14.0421C140.625 13.4568 136.42 13.5179 132.306 14.2231L126.138 9.29567L115.9 1.11691C115.347 0.675309 114.684 0.381765 113.976 0.265781C113.268 0.149798 112.541 0.21546 111.868 0.456168C111.195 0.696877 110.599 1.10415 110.141 1.63705C109.683 2.16995 109.379 2.80971 109.258 3.49201L107.03 16.1289L104.802 28.7658C104.703 29.3062 104.725 29.8604 104.865 30.3921C105.005 30.9238 105.26 31.4208 105.614 31.8504C101.995 37.6191 100.046 44.2173 99.9701 50.9584C99.8938 57.6995 101.693 64.3371 105.18 70.1805C108.668 76.0239 113.716 80.8596 119.8 84.1842C125.883 87.5088 132.78 89.201 139.772 89.0845C146.764 88.968 153.596 87.0472 159.557 83.522C165.518 79.9967 170.39 74.9958 173.666 69.0398C176.941 63.0837 178.502 56.3901 178.184 49.6556C177.866 42.9211 175.682 36.3917 171.858 30.747Z" fill="#3F3D56"/>
<path d="M160.679 6.74695L148.263 16.665C147.99 16.8836 147.78 17.1682 147.657 17.4894C147.533 17.8106 147.499 18.1576 147.559 18.4953C147.618 18.8331 147.769 19.1498 147.996 19.4136C148.223 19.6774 148.518 19.879 148.851 19.9981L163.969 25.4046C164.302 25.5238 164.662 25.5563 165.012 25.4989C165.363 25.4415 165.691 25.2962 165.965 25.0775C166.239 24.8589 166.448 24.5747 166.571 24.2534C166.695 23.9322 166.729 23.5852 166.669 23.2474L163.967 7.92276C163.91 7.58418 163.759 7.26651 163.532 7.00236C163.305 6.73821 163.009 6.53712 162.675 6.41976C162.447 6.33781 162.207 6.29568 161.964 6.29535C161.494 6.2962 161.039 6.45602 160.679 6.74695Z" fill="#E6E6E6"/>
<path d="M114.163 6.41976C113.828 6.53712 113.532 6.7382 113.305 7.00235C113.078 7.2665 112.928 7.58418 112.87 7.92276L110.168 23.2474C110.109 23.5852 110.142 23.9322 110.266 24.2534C110.39 24.5747 110.599 24.8589 110.873 25.0775C111.146 25.2962 111.475 25.4415 111.825 25.4989C112.176 25.5563 112.536 25.5238 112.869 25.4046L127.987 19.9981C128.32 19.879 128.615 19.6774 128.842 19.4136C129.068 19.1498 129.219 18.8331 129.279 18.4953C129.338 18.1576 129.305 17.8106 129.181 17.4894C129.057 17.1682 128.848 16.884 128.575 16.6654L116.159 6.74695C115.799 6.45601 115.344 6.29619 114.874 6.29535C114.631 6.29568 114.39 6.33782 114.163 6.41976Z" fill="#E6E6E6"/>
<path d="M139.102 61.8843C142.116 61.8843 144.561 59.5282 144.561 56.6218C144.561 53.7154 142.116 51.3593 139.102 51.3593C136.087 51.3593 133.643 53.7154 133.643 56.6218C133.643 59.5282 136.087 61.8843 139.102 61.8843Z" fill="#E6E6E6"/>
<path d="M139.101 55.3061C141.111 55.3061 142.741 54.7171 142.741 53.9905C142.741 53.2639 141.111 52.6749 139.101 52.6749C137.091 52.6749 135.462 53.2639 135.462 53.9905C135.462 54.7171 137.091 55.3061 139.101 55.3061Z" fill="#3F3D56"/>
<path d="M139.329 68.0239C139 68.0239 138.675 67.9615 138.372 67.8403C138.068 67.7191 137.792 67.5414 137.56 67.3175C137.327 67.0935 137.143 66.8276 137.017 66.5349C136.892 66.2423 136.827 65.9287 136.827 65.6119V59.6916H141.831V65.6119C141.831 65.9287 141.766 66.2423 141.641 66.5349C141.515 66.8276 141.331 67.0935 141.098 67.3175C140.866 67.5414 140.59 67.7191 140.287 67.8403C139.983 67.9615 139.658 68.0239 139.329 68.0239Z" fill="#FF6584"/>
<path d="M138.798 0C139.06 0.524571 139.315 1.05481 139.555 1.5959C142.378 7.94324 143.33 14.9184 142.306 21.7537C141.794 21.0373 141.256 20.291 140.708 19.5364C141.881 12.9762 141.221 6.23339 138.798 0Z" fill="#3F3D56"/>
<path d="M134.703 4.82397C134.966 5.34855 135.22 5.87879 135.46 6.41988C138.283 12.7672 139.235 19.7424 138.211 26.5777C137.699 25.8613 137.161 25.115 136.613 24.3604C137.786 17.8002 137.127 11.0574 134.703 4.82397Z" fill="#3F3D56"/>
<path d="M122.08 22.7833L122.657 15.7123L123.234 8.64125C123.265 8.25945 123.4 7.89229 123.625 7.57666C123.85 7.26102 124.157 7.00804 124.515 6.84315C124.874 6.67825 125.271 6.60725 125.667 6.63727C126.063 6.66729 126.444 6.79729 126.772 7.01419L132.836 11.0312L137.264 13.9646C137.547 13.6452 137.898 13.3887 138.294 13.2128C138.69 13.0369 139.12 12.9459 139.556 12.9459C139.992 12.9459 140.422 13.0369 140.818 13.2128C141.214 13.3887 141.565 13.6452 141.848 13.9646L146.276 11.0312L152.34 7.01419C152.668 6.79729 153.049 6.66729 153.445 6.63727C153.841 6.60725 154.238 6.67825 154.596 6.84315C154.955 7.00804 155.262 7.26102 155.487 7.57666C155.712 7.89229 155.847 8.25945 155.878 8.64125L156.455 15.7123L157.032 22.7833C157.063 23.1651 156.989 23.5481 156.818 23.8937C156.647 24.2394 156.385 24.5355 156.057 24.7524C155.73 24.9693 155.349 25.0993 154.953 25.1293C154.557 25.1594 154.16 25.0884 153.801 24.9235L147.16 21.8695L141.704 19.3601C141.423 19.6344 141.089 19.8521 140.72 20.0007C140.351 20.1493 139.956 20.2259 139.556 20.2259C139.156 20.2259 138.761 20.1493 138.392 20.0007C138.023 19.8521 137.689 19.6344 137.408 19.3601L131.952 21.8695L125.311 24.9235C124.952 25.0884 124.555 25.1594 124.159 25.1294C123.763 25.0994 123.382 24.9694 123.055 24.7525C122.727 24.5356 122.465 24.2394 122.294 23.8937C122.123 23.5481 122.049 23.1651 122.08 22.7833Z" fill="#167C80"/>
<path d="M145.016 50.9207C145.016 51.6473 145.627 50.9207 146.38 50.9207C147.134 50.9207 147.745 51.6473 147.745 50.9207C147.744 50.5722 147.6 50.2383 147.344 49.9921C147.089 49.746 146.742 49.6078 146.38 49.6078C146.019 49.6078 145.672 49.746 145.416 49.9921C145.16 50.2383 145.016 50.5722 145.016 50.9207Z" fill="#E6E6E6"/>
<path d="M133.188 50.9207C133.188 51.6473 132.576 50.9207 131.823 50.9207C131.069 50.9207 130.458 51.6473 130.458 50.9207C130.459 50.5722 130.603 50.2383 130.859 49.9921C131.115 49.746 131.461 49.6078 131.823 49.6078C132.184 49.6078 132.531 49.746 132.787 49.9921C133.043 50.2383 133.187 50.5722 133.188 50.9207Z" fill="#E6E6E6"/>
<path d="M284.602 150.255V141.892H241.228V142.415V150.255V217.68V226.042H249.903H284.602V217.68H249.903V150.255H284.602Z" fill="#3F3D56"/>
<path d="M305.746 141.893V226.042H349.121V141.893H305.746ZM340.446 217.68H314.421V150.255H340.446V217.68Z" fill="#167C80"/>
<path d="M185.382 217.68V142.415H176.707V217.68V226.042H185.382H220.081V217.68H185.382Z" fill="#167C80"/>
<path d="M157.189 150.255V141.892H113.814V142.415V150.255V179.525V187.888V217.68V226.042H122.489H157.189V217.68H122.489V187.888H157.189V179.525H122.489V150.255H157.189Z" fill="#3F3D56"/>
<path d="M496.594 150.255V141.892H453.22V142.415V150.255V179.525V187.888V217.68V226.042H461.895H496.594V217.68H461.895V187.888H496.594V179.525H461.895V150.255H496.594Z" fill="#167C80"/>
<path d="M84.5371 142.415V211.531L61.6643 189.482L61.6122 189.533L61.5637 189.486L38.1809 212.028V142.154H29.5059V225.781H38.1809V223.854L61.6163 201.262L84.5371 223.358V226.042H93.2121V142.415H84.5371Z" fill="#3F3D56"/>
<path d="M424.484 142.415V144.342L401.049 166.934L378.127 144.838V142.154H369.452V225.781H378.127V156.665L401 178.714L401.053 178.664L401.101 178.71L424.484 156.168V226.042H433.158V142.415H424.484Z" fill="#3F3D56"/>
<path d="M198.24 90.8996C201.18 90.8996 203.564 88.6015 203.564 85.7666C203.564 82.9317 201.18 80.6336 198.24 80.6336C195.299 80.6336 192.915 82.9317 192.915 85.7666C192.915 88.6015 195.299 90.8996 198.24 90.8996Z" fill="#167C80"/>
<path d="M66.8989 147.933C69.8396 147.933 72.2235 145.635 72.2235 142.8C72.2235 139.965 69.8396 137.667 66.8989 137.667C63.9581 137.667 61.5742 139.965 61.5742 142.8C61.5742 145.635 63.9581 147.933 66.8989 147.933Z" fill="#167C80"/>
<path d="M172.207 262C175.148 262 177.532 259.702 177.532 256.867C177.532 254.032 175.148 251.734 172.207 251.734C169.267 251.734 166.883 254.032 166.883 256.867C166.883 259.702 169.267 262 172.207 262Z" fill="#167C80"/>
<path d="M305.915 106.299C308.856 106.299 311.24 104.001 311.24 101.166C311.24 98.3308 308.856 96.0327 305.915 96.0327C302.975 96.0327 300.591 98.3308 300.591 101.166C300.591 104.001 302.975 106.299 305.915 106.299Z" fill="#167C80"/>
<path d="M462.696 257.437C465.636 257.437 468.02 255.139 468.02 252.304C468.02 249.469 465.636 247.171 462.696 247.171C459.755 247.171 457.371 249.469 457.371 252.304C457.371 255.139 459.755 257.437 462.696 257.437Z" fill="#167C80"/>
<path d="M468.021 122.838C470.962 122.838 473.346 120.54 473.346 117.705C473.346 114.871 470.962 112.572 468.021 112.572C465.08 112.572 462.696 114.871 462.696 117.705C462.696 120.54 465.08 122.838 468.021 122.838Z" fill="#167C80"/>
<path d="M400.576 215.233C403.516 215.233 405.9 212.934 405.9 210.1C405.9 207.265 403.516 204.967 400.576 204.967C397.635 204.967 395.251 207.265 395.251 210.1C395.251 212.934 397.635 215.233 400.576 215.233Z" fill="#167C80"/>
</g>
<defs>
<clipPath id="clip0_255_780">
<rect width="526" height="262" fill="white"/>
</clipPath>
</defs>
</svg>
